<svg xmlns="http://www.w3.org/2000/svg" viewBox="0 0 256 96">
	<rect x="1" y="1" width="254" height="110" stroke="" fill="#222"/>
	<g fill="#888" opacity=".125">
		<rect y="0" width="256" height="8"/>
		<rect y="16" width="256" height="8"/>
		<rect y="32" width="256" height="8"/>
		<rect y="48" width="256" height="8"/>
		<rect y="56" width="256" height="8"/>
		<rect y="72" width="256" height="8"/>
		<rect y="88" width="256" height="8"/>
	</g>
	<g fill="#444" opacity=".125">>
		<rect x="0" width="16" height="96"/>
		<rect x="32" width="16" height="96"/>
		<rect x="64" width="16" height="96"/>
		<rect x="96" width="16" height="96"/>
		<rect x="128" width="16" height="96"/>
		<rect x="160" width="16" height="96"/>
		<rect x="192" width="16" height="96"/>
		<rect x="224" width="16" height="96"/>
	</g>
	<g stroke="#444" stroke-width="1">
		<line y1="8" x2="256" y2="8"/>
		<line y1="16" x2="256" y2="16"/>
		<line y1="24" x2="256" y2="24"/>
		<line y1="32" x2="256" y2="32"/>
		<line y1="40" x2="256" y2="40"/>
		<line y1="48" x2="256" y2="48"/>
		<line y1="56" x2="256" y2="56"/>
		<line y1="64" x2="256" y2="64"/>
		<line y1="72" x2="256" y2="72"/>
		<line y1="80" x2="256" y2="80"/>
		<line y1="88" x2="256" y2="88"/>
	</g>
	<g stroke="#555" stroke-width="1">
		<line x1="64" x2="64" y2="96"/>
		<line x1="128" x2="128" y2="96"/>
		<line x1="192" x2="192" y2="96"/>
	</g>
</svg>