<svg xmlns="http://www.w3.org/2000/svg" viewBox="0 0 192 192">
	<rect x="0" y="0" width="100%" height="100%" fill="#222"/>
	<g fill="#888" opacity=".125">
		<rect y="0" width="100%" height="8"/>
		<rect y="16" width="100%" height="8"/>
		<rect y="32" width="100%" height="8"/>
		<rect y="48" width="100%" height="8"/>
		<rect y="56" width="100%" height="8"/>
		<rect y="72" width="100%" height="8"/>
		<rect y="88" width="100%" height="8"/>
		<rect y="96" width="100%" height="8"/>
		<rect y="112" width="100%" height="8"/>
		<rect y="128" width="100%" height="8"/>
		<rect y="144" width="100%" height="8"/>
		<rect y="152" width="100%" height="8"/>
		<rect y="168" width="100%" height="8"/>
		<rect y="184" width="100%" height="8"/>
	</g>
	<g fill="#444" opacity=".125">>
		<rect x="0" width="16" height="100%"/>
		<rect x="32" width="16" height="100%"/>
		<rect x="64" width="16" height="100%"/>
		<rect x="96" width="16" height="100%"/>
		<rect x="128" width="16" height="100%"/>
		<rect x="160" width="16" height="100%"/>
	</g>
	<g stroke="#444" stroke-width="1">
		<line y1="8" x2="100%" y2="8"/>
		<line y1="16" x2="100%" y2="16"/>
		<line y1="24" x2="100%" y2="24"/>
		<line y1="32" x2="100%" y2="32"/>
		<line y1="40" x2="100%" y2="40"/>
		<line y1="48" x2="100%" y2="48"/>
		<line y1="56" x2="100%" y2="56"/>
		<line y1="64" x2="100%" y2="64"/>
		<line y1="72" x2="100%" y2="72"/>
		<line y1="80" x2="100%" y2="80"/>
		<line y1="88" x2="100%" y2="88"/>
		<line y1="96" x2="100%" y2="96"/>
		<line y1="104" x2="100%" y2="104"/>
		<line y1="112" x2="100%" y2="112"/>
		<line y1="120" x2="100%" y2="120"/>
		<line y1="128" x2="100%" y2="128"/>
		<line y1="136" x2="100%" y2="136"/>
		<line y1="144" x2="100%" y2="144"/>
		<line y1="152" x2="100%" y2="152"/>
		<line y1="160" x2="100%" y2="160"/>
		<line y1="168" x2="100%" y2="168"/>
		<line y1="176" x2="100%" y2="176"/>
		<line y1="184" x2="100%" y2="184"/>
	</g>
	<g stroke="#555" stroke-width="1">
		<line x1="48" x2="48" y2="100%"/>
		<line x1="96" x2="96" y2="100%"/>
		<line x1="144" x2="144" y2="100%"/>
	</g>
</svg>