<svg xmlns="http://www.w3.org/2000/svg" viewBox="0 0 256 256">
	<defs>
		<style type="text/css">
			:root {
				--met-1: #666;
				--met-2: #333;
				--met-3: #8f8f80;
				--ppe-1: #1a1a1a;
				--ppe-3: #eee;
				--ltr-1: #403028;
				background: #222
			}

			.met-1 {fill: var(--met-1); stroke: var(--met-1)}
			.met-2 {fill: var(--met-2); stroke: var(--met-2)}
			.met-3 {fill: var(--met-3); stroke: var(--met-3)}
			.ppe-1 {fill: var(--ppe-1); stroke: var(--ppe-1)}
			.ppe-3 {fill: var(--ppe-3); stroke: var(--ppe-3)}
			.ltr-1 {fill: var(--ltr-1); stroke: var(--ltr-1)}

			.line, .limb {fill: none;}
			:not(.line, .limb) {stroke: none}
			.limb {
				stroke-width: 10;
				stroke-linecap: round;
				stroke-linejoin: round;
			}
		</style>
		<linearGradient id="Gradient1">
			<stop class="stop1" offset="0%"/>
			<stop class="stop2" offset="50%"/>
			<stop class="stop3" offset="100%"/>
		</linearGradient>
		<radialGradient id="flash" r="50%">
			<stop offset=".2" stop-color="#ddf"/>
			<stop offset="1" stop-color="#88f" stop-opacity="0"/>
		</radialGradient>
	</defs>
	<!-- <g stroke="#888" stroke-width=".2" fill="#fff">
		<rect fill-opacity=".05" width="100%" height="100%" />
		<rect fill-opacity=".05" x="12.5%" y="12.5%" width="75%" height="75%"/>
		<rect fill-opacity=".05" x="25%" y="25%" width="50%" height="50%"/>
	</g> -->
	<animate id="a" dur="2s" begin="0;a.end"/>
	
	<g id="robot_1" class="robot">

		<ellipse fill="url(#flash)" cx="128" cy="224" rx="80" ry="8">
		 <animate attributeName="rx"
									dur="0.5"
									begin="a.begin+0.1"
									repeatCount="4"
									values="80; 88; 80"
									keyTimes="0;.2;1"/>
		</ellipse>
		<g>
			<animateTransform attributeName="transform"
												type="translate"
												dur="1"
												begin="a.begin"
												repeatCount="2"
												values="0 0; 2 4; 0 0; -2 4; 0 0"
												keyTimes="0; .2; .5; .7; 1"/>
			<g class="met-1" stroke-width=".1" fill-opacity="1.5">
				<path class="" d="M50 216 q-8 0 -8 -4 h2 q4 0 6 -4 l26 -52 q2 -4 6 -4 h92 q4 0 6 4 l26 52 q2 4 6 4 h2 q0 4 -8 4z"/>
				<path class="met-1 l1" d="M50 216 q-8 0 -8 -4 h170 h2 q0 4 -8 4z"/>
				<g transform="skewX(0)" transform-origin="180 192">
					<path class="ltr-1" d="M180 192 v-19 h-5 h7.5 h-2.5 v19 c-6 0 -4 12 -12 16 c-8 4 -36 0 -40 -4 q-4 -4 -4 -16 q0 -20 8 -24 q4 -2 48 -2
																q20 0 24 2 q4 4 4 24 q0 12 -2 16 c-2 4 -16 8 -20 4 c-4 -4 -3 -16 -6 -16"/>
					<path class="ppe-1 l2" d="M168 202 q-2 4 -12 4 q-8 0 -20 -4 c-16 -4 -4 -32 8 -34 q4 -1 12 -1 q8 0 18 1 c6 1 5 7 4 9z"/>
					<path class="ppe-1 l1" d="M186 202 q1 4 6 4 h4 q4 0 10 -4 c8 -4 2 -32 -4 -34 q-2 -1 -6 -1 h-4 q-4 0 -9 1 c-3 1 -2.5 7 -2 9z"/>
					<path class="ppe-2 l2" d="M165 199 q-1 3 -6 3 q-8 0 -20 -3 c-14 -3 -4 -27 10 -28 q10 -1 24 1 c3 .5 1.5 2.5 1 4z"/>
					<path class="ppe-1 l2" d="M190 202 q1 4 6 4 q4 0 10 -4 c8 -4 2 -32 -4 -34 q-2 -1 -6 -1 q-4 0 -9 1 c-3 1 -2.5 7 -2 9z"/>
					<path class="ppe-2 l2" d="M192.5 199 q.5 3 3 3 q4 0 10 -3 c7 -3 2 -27 -5 -28 q-5 -1 -12 1 c-1.5 .5 -.75 2.5 -.5 4z"/>
					<path class="ppe-1 l3" d="M176 170 q6 -1 10 0 v4 q-4 -1 -10 0"/>
					<!-- <circle class="ppe-1" cx="172.7" cy="174" r="6"/> -->
					<!-- <circle class="ppe-1" cx="172.7" cy="174" r="2"/> -->
					<!-- <line class="ppe-1" x1="168" y1="202" x2="184" y2="162"/> -->
				</g>
				
			</g>
		</g>
	</g>
	<script href="AlloMachines_machine.js">
	</script>
</svg>