<svg xmlns="http://www.w3.org/2000/svg" viewBox="0 0 256 256">
	<defs>
		<style>
			@font-face {
				font-family: "DPSDbeyond";
				font-weight: normal;
				font-style: normal;
				src: url("typo/DPSDbeyond.otf");
			}
			g {
				font-family: "DPSDbeyond";
			}
		</style>
		<linearGradient id="gradTri" x1="0" x2="0" y1="0" y2="100%">
			<stop offset="0" stop-color="#010105"/>
			<stop offset="1" stop-color="#010105" stop-opacity="0"/>
		</linearGradient>
		<linearGradient id="grad1" x1="0" x2="0" y1="0" y2="100%">
			<stop offset="0" stop-color="#e9491e"/>
			<stop offset="1" stop-color="#e91e1e"/>
		</linearGradient>
		<linearGradient id="grad2" x1="0" x2="0" y1="0" y2="100%">
			<stop offset="0" stop-color="#eb2762"/>
			<stop offset="1" stop-color="#b91726"/>
		</linearGradient>
		<linearGradient id="grad3" x1="0" x2="0" y1="0" y2="100%">
			<stop offset="0" stop-color="#e60cd7"/>
			<stop offset="1" stop-color="#e60c87"/>
		</linearGradient>
		<linearGradient id="grad4" x1="0" x2="0" y1="0" y2="100%">
			<stop offset="0" stop-color="#670de0"/>
			<stop offset="1" stop-color="#4e0de0"/>
		</linearGradient>
		<linearGradient id="grad5" x1="0" x2="0" y1="0" y2="100%">
			<stop offset="0" stop-color="#11d6a1"/>
			<stop offset="1" stop-color="#1b89ce"/>
		</linearGradient>
		<linearGradient id="grad6" x1="0" x2="0" y1="0" y2="100%">
			<stop offset="0" stop-color="#13f47d"/>
			<stop offset="1" stop-color="#51dc27"/>
		</linearGradient>
	</defs>
	<rect width="100%" height="100%" fill="#010105"/>
	<g id="bars">
		<rect x="15" y="27" width="28" height="188" fill="url(#grad1)"/>
		<rect x="50" y="27" width="28" height="188" fill="url(#grad2)"/>
		<rect x="85" y="27" width="28" height="188" fill="url(#grad3)"/>
		<rect x="143" y="27" width="28" height="188" fill="url(#grad4)"/>
		<rect x="178" y="27" width="28" height="188" fill="url(#grad5)"/>
		<rect x="213" y="27" width="28" height="188" fill="url(#grad6)"/>
	</g>
	
	<g fill="url(#gradTri)">
		<polygon points="0,0 0,6.823 128,179 256,6.823 256,0" />
		<polygon points="10,0 128,159 246,0" />
		<polygon points="25,0 128,139 231,0" />
		<polygon points="40,0 128,119 216,0" />
	</g>
	<g font-family="Oslo" font-size="10" textLength="20" fill="#fafada">
		<text x="60" y="16" textLength="136" >Allo_Machines</text>
		<text x="68" y="240" textLength="120" font-size="12">Concerto</text>
	</g>
</svg>