<svg xmlns="http://www.w3.org/2000/svg" viewBox="0 0 256 256">
	<defs>
		<style type="text/css">
			:root {
				--met-1: #666;
				--met-2: #333;
				--met-3: #8f8f80;
				--met-4: #d0a030;
				--ppe-1: #1a1a1a;
				--ppe-2: #888;
				--ppe-3: #eee;
				--ltr-1: #403028;
				--ltr-2: #201008;
				background: #222
			}

			.met-1 {fill: var(--met-1); stroke: var(--met-1)}
			.met-2 {fill: var(--met-2); stroke: var(--met-2)}
			.met-3 {fill: var(--met-3); stroke: var(--met-3)}
			.met-4 {fill: var(--met-4); stroke: var(--met-4)}
			.ppe-1 {fill: var(--ppe-1); stroke: var(--ppe-1)}
			.ppe-2 {fill: var(--ppe-2); stroke: var(--ppe-2)}
			.ppe-3 {fill: var(--ppe-3); stroke: var(--ppe-3)}
			.ltr-1 {fill: var(--ltr-1); stroke: var(--ltr-1)}
			.ltr-2 {fill: var(--ltr-2); stroke: var(--ltr-2)}

			.line, .limb {fill: none;}
			:not(.line, .limb) {stroke: none}
			.limb {
				stroke-width: 10;
				stroke-linecap: round;
				stroke-linejoin: round;
			}
		</style>
		<linearGradient id="Gradient1">
			<stop class="stop1" offset="0%"/>
			<stop class="stop2" offset="50%"/>
			<stop class="stop3" offset="100%"/>
		</linearGradient>
		<radialGradient id="flash" r="50%">
			<stop offset=".2" stop-color="#ddf"/>
			<stop offset="1" stop-color="#88f" stop-opacity="0"/>
		</radialGradient>
	</defs>
	<g stroke="#888" stroke-width=".2" fill="#fff">
		<rect fill-opacity=".05" width="100%" height="100%" />
		<rect fill-opacity=".05" x="12.5%" y="12.5%" width="75%" height="75%"/>
		<rect fill-opacity=".05" x="25%" y="25%" width="50%" height="50%"/>
	</g>
	<animate id="a" dur="2s" begin="0;a.end"/>
	
	<g id="robot_1" class="robot">

		<ellipse fill="url(#flash)" cx="128" cy="224" rx="80" ry="8">
		 <animate attributeName="rx"
									dur="0.5"
									begin="a.begin+0.1"
									repeatCount="4"
									values="80; 88; 80"
									keyTimes="0;.2;1"/>
		</ellipse>
		<g>
			<animateTransform attributeName="transform"
												type="translate"
												dur="1"
												begin="a.begin"
												repeatCount="2"
												values="0 0; 2 4; 0 0; -2 4; 0 0"
												keyTimes="0; .2; .5; .7; 1"/>
			<g>
				<path class="met-1" d="M50 216 q-8 0 -8 -4 h2 q4 0 6 -4 l26 -52 q2 -4 6 -4 h92 q4 0 6 4 l26 52 q2 4 6 4 h2 q0 4 -8 4z"/>
				<path class="met-1 l1" d="M50 216 q-8 0 -8 -4 h170 h2 q0 4 -8 4z"/>

				<g class="ppe-1" transform="skewX(-5)" transform-origin="105 176">
					<circle class="l1" cx="105" cy="176" r="16"/>
					<!-- <path class="l2" d="M105 163.1 l4 2 c14.4 7.2 4.4 28 -10 21.8 l-4 -2"/> -->
					<path class="l2 line" stroke-width="24" stroke-linecap="round" d="M104 176 l-4 -2"/>
					<circle class="l3" cx="100" cy="174" r="12"/>
					<circle cx="100" cy="174" r="4"/>
				</g>
				<g class="ppe-1" transform="skewX(-15) scale(.6 1)" transform-origin="74 176">
					<circle class="l1" cx="74" cy="176" r="16"/>
					<!-- <path class="l2" d="M62 162.2 l12 2 c15 2.5 11.6 26.2 -4 23.6 l-12 -2"/> -->
					<path class="l2 line" stroke-width="24" stroke-linecap="round" d="M72 176 l-12 -2"/>
					<circle class="l3" cx="60" cy="174" r="12"/>
					<circle cx="60" cy="174" r="4"/>
				</g>
				
				<g transform="skewX(10)" transform-origin="180 192">
					<mask id="lens" maskUnits="userSpaceOnUse" fill="#000">
						<rect x="0" y="0" width="100%" height="100%" fill="#fff" />
						<path d="M165 199 q-1 3 -6 3 q-8 0 -20 -3 c-14 -3 -4 -27 10 -28 q10 -1 24 1 c3 .5 1.5 2.5 1 4z"/>
						<path d="M192.5 199 q.5 3 3 3 q4 0 10 -3 c7 -3 2 -27 -5 -28 q-5 -1 -12 1 c-1.5 .5 -.75 2.5 -.5 4z"/>
					</mask>
					<g mask="url(#lens)">
						<path class="ltr-1" d="M180 192 v-19 h-5 h7.5 h-2.5 v19 c-6 0 -4 12 -12 16 c-8 4 -36 0 -40 -4 q-4 -4 -4 -16 q0 -20 8 -24 q4 -2 48 -2
																	q20 0 24 2 q4 4 4 24 q0 12 -2 16 c-2 4 -16 8 -20 4 c-4 -4 -3 -16 -6 -16"/>
						<path class="ppe-1 l2" d="M168 202 q-2 4 -12 4 q-8 0 -20 -4 c-16 -4 -4 -32 8 -34 q4 -1 12 -1 q8 0 18 1 c6 1 5 7 4 9z"/>
						<path class="ppe-1 l1" d="M186 202 q1 4 6 4 h4 q4 0 10 -4 c8 -4 2 -32 -4 -34 q-2 -1 -6 -1 h-4 q-4 0 -9 1 c-3 1 -2.5 7 -2 9z"/>
						<path class="ppe-1 l2" d="M190 202 q1 4 6 4 q4 0 10 -4 c8 -4 2 -32 -4 -34 q-2 -1 -6 -1 q-4 0 -9 1 c-3 1 -2.5 7 -2 9z"/>
					</g>
					<path class="ppe-3" fill-opacity=".5" d="M165 199 q-1 3 -6 3 q-8 0 -20 -3 c-14 -3 -4 -27 10 -28 q10 -1 24 1 c3 .5 1.5 2.5 1 4z"/>
					<path class="ppe-3" fill-opacity=".5" d="M192.5 199 q.5 3 3 3 q4 0 10 -3 c7 -3 2 -27 -5 -28 q-5 -1 -12 1 c-1.5 .5 -.75 2.5 -.5 4z"/>
					<path class="ppe-1 l3" d="M176 170 q6 -1 10 0 v4 q-4 -1 -10 0"/>
					<path class="met-1 l3" fill-rule="evenodd" d="M124 176 h3 q3 8 0 16 h-3z m.5 2 c0 -1 1 -1 1 0 v12 c0 1 -1 1 -1 0"/>
				</g>
				<path class="ltr-2" d="M123 178 l2 12 q-38 20 -77 20 l4 -12 q36 0 71 -20"/>
			</g>
			<g class="met-4" stroke-width="0" fill-opacity="1.5">
				<path d="M148 152 v-6 q0 -4 -4 -4 c-8 0 -8 10 -32 10 q-16 0 -16 -16 v-2 h16 v2 q0 2 6 2 c14 0 14 -8 26 -8 q12 0 12 16 v6"/>
				<path class="l3 line" stroke-width="1" d="M154 152 v-6 q0 -14 -10 -14 c-12 0 -12 8 -26 8 q-8 0 -8 -4 v-2"/>
				<g>
					<rect class="l1" x="94" y="127" height="8" width="20"/>
					<line class="l4 line" x1="112" y1="127" x2="112" y2="135"/>
					<path class="l4 line" stroke-width="1" d="M112 127 v8"/>
				</g>
			</g>
		</g>
	</g>
	<script href="AlloMachines_machine.js">
	</script>
</svg>