<svg xmlns="http://www.w3.org/2000/svg" viewBox="0 0 256 256">
	<defs>
		<style>
			@font-face {
				
			}
			g {
				outline: 2px solid yellow
			}
		</style>
		<linearGradient id="gradTri" x1="0" x2="0" y1="0" y2="100%">
			<stop offset="0" stop-color="#010105"/>
			<stop offset="1" stop-color="#010105" stop-opacity="0"/>
		</linearGradient>
		<linearGradient id="grad1" x1="0" x2="0" y1="0" y2="100%">
			<stop offset="0" stop-color="#e9491e"/>
			<stop offset="1" stop-color="#e91e1e"/>
		</linearGradient>
		<linearGradient id="grad2" x1="0" x2="0" y1="0" y2="100%">
			<stop offset="0" stop-color="#eb2762"/>
			<stop offset="1" stop-color="#b91726"/>
		</linearGradient>
		<linearGradient id="grad3" x1="0" x2="0" y1="0" y2="100%">
			<stop offset="0" stop-color="#e60cd7"/>
			<stop offset="1" stop-color="#e60c87"/>
		</linearGradient>
		<linearGradient id="grad4" x1="0" x2="0" y1="0" y2="100%">
			<stop offset="0" stop-color="#670de0"/>
			<stop offset="1" stop-color="#4e0de0"/>
		</linearGradient>
		<linearGradient id="grad5" x1="0" x2="0" y1="0" y2="100%">
			<stop offset="0" stop-color="#11d6a1"/>
			<stop offset="1" stop-color="#1b89ce"/>
		</linearGradient>
		<linearGradient id="grad6" x1="0" x2="0" y1="0" y2="100%">
			<stop offset="0" stop-color="#13f47d"/>
			<stop offset="1" stop-color="#51dc27"/>
		</linearGradient>
	</defs>
	<rect width="100%" height="100%" fill="#010105"/>
	<g id="bars">
		<rect x="15" y="25" width="30" height="188" fill="url(#grad1)"/>
		<rect x="50" y="25" width="30" height="188" fill="url(#grad2)"/>
		<rect x="85" y="25" width="30" height="188" fill="url(#grad3)"/>
		<rect x="141" y="25" width="30" height="188" fill="url(#grad4)"/>
		<rect x="176" y="25" width="30" height="188" fill="url(#grad5)"/>
		<rect x="211" y="25" width="30" height="188" fill="url(#grad6)"/>
	</g>
	
	<g fill="url(#gradTri)">
		<polygon points="0,0 0,6.6 128,192 256,6.6 256,0" />
		<polygon points="16,0 128,168 240,0" />
		<polygon points="37,0 128,144 219,0" />
		<polygon points="58,0 128,120 198,0" />
	</g>
	<g font-family="Roboto Mono" font-size="10" font-weight="200" textLength="20" fill="#fff">
		<text x="72" y="16" textLength="112" >allo_machines</text>
		<text x="68" y="240" textLength="120" font-size="12">Concerto</text>
	</g>
</svg>